<svg version="1.1" id="Layer_1" xmlns="http://www.w3.org/2000/svg" xmlns:xlink="http://www.w3.org/1999/xlink" x="0px" y="0px" viewBox="0 0 265.6 93.3" style="enable-background:new 0 0 265.6 93.3;" xml:space="preserve">
 <style type="text/css">
  .st0{fill:#00497B;}
	.st1{fill:#FFFFFF;}
	.st2{fill:#D01847;}
 </style>
 <g>
  <g>
   <path class="st0" d="M260.8,36.1c0-0.4,0.1-0.8,0.3-1.2c0.2-0.4,0.5-0.7,0.9-0.9c0.4-0.2,0.8-0.3,1.2-0.3c0.4,0,0.8,0.1,1.2,0.3
			c0.4,0.2,0.7,0.5,0.9,0.9c0.2,0.4,0.3,0.8,0.3,1.2c0,0.4-0.1,0.8-0.3,1.2c-0.2,0.4-0.5,0.7-0.9,0.9c-0.4,0.2-0.8,0.3-1.2,0.3
			c-0.4,0-0.8-0.1-1.2-0.3c-0.4-0.2-0.7-0.5-0.9-0.9C260.9,36.9,260.8,36.5,260.8,36.1 M261.1,36.1c0,0.4,0.1,0.7,0.3,1
			c0.2,0.3,0.4,0.6,0.8,0.8c0.3,0.2,0.7,0.3,1,0.3c0.4,0,0.7-0.1,1-0.3c0.3-0.2,0.6-0.4,0.8-0.8c0.2-0.3,0.3-0.7,0.3-1
			c0-0.4-0.1-0.7-0.3-1c-0.2-0.3-0.4-0.6-0.7-0.8c-0.3-0.2-0.7-0.3-1.1-0.3c-0.4,0-0.7,0.1-1,0.3c-0.3,0.2-0.6,0.4-0.8,0.8
			C261.2,35.3,261.1,35.7,261.1,36.1 M264,35.5c0,0.2,0,0.3-0.1,0.4c-0.1,0.1-0.2,0.2-0.3,0.3l0.7,1.2h-0.4l-0.7-1.1h-0.5v1.1h-0.3
			v-2.8h0.7c0.3,0,0.5,0.1,0.7,0.2C264,35,264,35.2,264,35.5 M262.7,36.1h0.4c0.2,0,0.3,0,0.4-0.1c0.1-0.1,0.2-0.2,0.2-0.4
			c0-0.4-0.2-0.5-0.6-0.5h-0.3V36.1z">
   </path>
   <path class="st1" d="M93.8,30.8c-1.9-5.9-5.6-8.2-7.6-9c-1.7-0.7-3.6-0.8-5-0.8c-0.5,0-1.1,0-1.7,0c-0.3,0-0.7,0-0.9,0l-17.1-0.1
			c0.6-0.4,1-0.8,1.4-1.4c1.4-2.2,0.8-5.2,0.1-7.5c-0.6-2-2.3-6.7-4.3-8.7C55.6,0.2,51.2,0,45.2,0C39,0,35.7,2.8,34.3,4.4
			c-1.5,1.7-2.2,4.1-2.8,6.1c-0.1,0.3-0.2,0.6-0.3,0.9l-5.4,16.2c-0.2-0.6-0.5-1.3-0.9-1.8c-1.7-2.1-4.7-2.4-7.1-2.4l-0.4,0
			c-2.5,0-6.9,0.2-9.2,1.4c-3.9,2-5.5,6.1-7.3,11.8c-1.9,5.9-0.3,9.9,0.8,11.7c1.2,2,3.2,3.3,5,4.6c0.3,0.2,0.5,0.4,0.8,0.5
			l13.8,10.2c-0.1,0-0.2,0-0.3,0c-4,0-5.6,4.8-6.1,6.3c-0.7,2-2.1,6.8-1.7,9.6c0.7,4.3,4.1,7.1,9,10.6c2.8,2,5.9,3.1,8.8,3.1
			c0.9,0,1.8-0.1,2.6-0.3c2.2-0.5,4.2-2,5.9-3.3c0.3-0.2,0.5-0.4,0.7-0.6l13.9-10c-0.2,0.6-0.4,1.3-0.3,2c0.1,2.7,2.4,4.7,4.3,6.1
			c1.7,1.2,5.8,4.1,8.6,4.6c0.5,0.1,1,0.1,1.4,0.1c3.7,0,7.2-2.3,11.4-5.4c5-3.6,6-7.8,6.2-10c0.2-2.3-0.6-4.6-1.3-6.6
			c-0.1-0.3-0.2-0.6-0.3-0.9l-5.2-16.3c0.8,0.7,1.9,1.1,3.1,1.1c1.7,0,3.5-0.8,5.8-2.4c1.7-1.2,5.7-4.2,7-6.8
			C96.8,40.8,95.6,36.5,93.8,30.8">
   </path>
  </g>
  <path class="st2" d="M59.9,13c-0.6-1.9-2.1-6.1-3.5-7.4c-2.1-2.1-5.3-2.4-11.2-2.4c-4.2,0-7,1.6-8.5,3.3c-1.2,1.4-1.8,3.9-2.5,6
		l-7,21.1l10,0l4.6-13.9l4.6,14h10.1l-3.7-11c-0.2-0.6-0.7-2-1.2-2.9c-0.5-0.9-1.2-1-1.5-1.1c-0.1,0,2.2,0,4.3,0c1.9,0,3.9,0,4.3,0
		C60.3,18.4,61.3,17.2,59.9,13 M48.5,18.1c-2.3,0-6.1,0-6.1,0l4.5-13.5c0,0,2.9,8.6,3.4,10.2C50.9,16.6,50.5,18.1,48.5,18.1">
  </path>
  <path class="st2" d="M86,48.8c1.6-1.1,5.1-3.9,6-5.6c1.3-2.6,0.6-5.8-1.2-11.4c-1.3-4-3.6-6.2-5.8-7.1c-1.8-0.7-4.2-0.5-6.4-0.5
		l-22.2-0.2l3.1,9.6l14.7,0.1c0,0-11.9,8.7-11.9,8.7l3.1,9.6l9.4-6.9c0.5-0.3,1.7-1.3,2.4-2c0.7-0.7,0.6-1.5,0.6-1.7
		c0-0.1,0.7,2.1,1.3,4.1c0.6,1.9,1.2,3.7,1.3,4.1C81,50.9,82.4,51.4,86,48.8 M77.6,39.6c-0.7-2.2-1.9-5.8-1.9-5.8l14.2,0.1
		c0,0-7.3,5.4-8.6,6.4C79.8,41.4,78.2,41.5,77.6,39.6">
  </path>
  <path class="st2" d="M59.9,84.7c1.6,1.2,5.3,3.7,7.2,4c2.9,0.5,5.7-1.2,10.5-4.7c3.4-2.5,4.7-5.4,4.9-7.7c0.2-1.9-0.8-4.2-1.5-6.2
		l-6.7-21.2l-8.1,5.9l4.4,14l-12-8.6L50.5,66l9.4,6.8c0.5,0.3,1.7,1.3,2.6,1.7c0.9,0.4,1.6,0.1,1.8,0c0.1-0.1-1.8,1.3-3.5,2.5
		c-1.6,1.1-3.2,2.3-3.5,2.5C56.5,80.6,56.4,82,59.9,84.7 M66.2,73.9c1.8-1.4,4.9-3.6,4.9-3.6l4.3,13.5c0,0-7.4-5.3-8.8-6.2
		C65.1,76.5,64.6,75,66.2,73.9">
  </path>
  <path class="st2" d="M17.8,71c-0.6,1.9-1.9,6.1-1.6,8.1c0.5,2.9,2.9,5.1,7.7,8.5c3.4,2.5,6.6,2.8,8.8,2.3c1.8-0.4,3.7-2.1,5.5-3.4
		l18.1-12.9l-8.1-5.9l-11.9,8.6l4.5-14.1l-8.1-5.9l-3.5,11.1c-0.2,0.6-0.7,2-0.8,3c-0.1,1,0.3,1.5,0.5,1.7c0.1,0.1-1.8-1.3-3.5-2.5
		c-1.6-1.1-3.1-2.3-3.5-2.5C20.6,66.4,19.2,66.8,17.8,71 M30,73.6c1.9,1.3,4.9,3.6,4.9,3.6l-11.5,8.3c0,0,2.7-8.7,3.2-10.3
		C27.2,73.4,28.4,72.4,30,73.6">
  </path>
  <path class="st2" d="M17.8,26.7c-2,0-6.4,0.1-8.1,1C7,29,5.7,32,3.9,37.7c-1.3,4-0.7,7.1,0.5,9.1c1,1.6,3.1,2.9,4.9,4.2l17.9,13.2
		l3.1-9.5l-11.8-8.7c0,0,14.7-0.1,14.7-0.1l3.1-9.6l-11.6,0.1c-0.6,0-2.1,0-3.1,0.2c-1,0.2-1.4,0.8-1.5,1c-0.1,0.1,0.7-2.1,1.3-4.1
		c0.6-1.8,1.2-3.7,1.3-4.1C23,28,22.2,26.7,17.8,26.7 M19.1,39.1c-0.7,2.2-1.9,5.8-1.9,5.8L5.8,36.5c0,0,9.1-0.1,10.8-0.1
		C18.4,36.4,19.7,37.2,19.1,39.1">
  </path>
  <path class="st0" d="M112.2,38.6h3c1.5,0,2.5,0.6,2.2,2c-0.2,1.3-1.4,1.8-3.4,1.8h-2.6 M112.8,46.7c3,0,3.3,0.8,2.9,3.4
		c-0.3,1.7-0.4,2.9-0.3,3.4h6.6l0.1-0.6c-0.8,0-0.5-0.9-0.1-3.4c0.7-3.9-0.5-4.4-2.4-5.1c2.4-0.6,3.8-2.5,4.2-4.7
		c0.7-3.8-1.2-5.5-7.8-5.5h-9.3l-3.5,19.3h6.5l1.2-6.7H112.8z">
  </path>
  <polyline class="st0" points="124.9,53.4 128.4,34.1 144.5,34.1 143.7,38.6 134,38.6 133.5,41.4 141.7,41.4 140.9,45.9 132.7,45.9 
		132.2,48.9 142.2,48.9 141.4,53.4 	">
  </polyline>
  <path class="st0" d="M152.6,42.9l0.8-4.3h1.8c1.4,0,3.4,0.2,3.1,2c-0.3,1.7-1.5,2.3-3,2.3 M150.7,53.4l1.1-6h3.3
		c5.7,0,8.7-2.6,9.4-6.8c0.7-4-1.6-6.5-7.3-6.5h-9.5l-3.5,19.3H150.7z">
  </path>
  <path class="st0" d="M167.9,34.1h6.5l-2.1,11.6c-0.4,1.9-0.3,3.5,2.4,3.5c2.3,0,3.3-1.5,3.7-3.5l2.1-11.6h6.5L185,45
		c-1.1,6.2-4.5,8.9-11.1,8.9c-6.1,0-9.1-2.3-7.9-8.9">
  </path>
  <path class="st0" d="M197.4,45.3c2.1,0,3.5,0.1,3.2,1.8c-0.3,1.5-1.5,1.8-3.1,1.8h-2.8l0.6-3.6 M198.8,38.6c1.4,0,2.6,0,2.4,1.5
		c-0.2,1.1-1.2,1.7-2.5,1.7h-2.7l0.6-3.2H198.8z M197,53.4c5.1,0,8.8-1.5,9.6-5.8c0.4-2.1-0.5-3.9-2.5-4.4c1.4-0.8,3-2.2,3.3-4.2
		c0.7-3.8-2.7-4.9-7.1-4.9h-9.4l-3.5,19.3H197z">
  </path>
  <polyline class="st0" points="208.9,53.4 212.3,34.1 218.8,34.1 216.2,48.9 225.1,48.9 224.2,53.4 	">
  </polyline>
  <polyline class="st0" points="227.2,53.4 230.7,34.1 237.2,34.1 233.7,53.4 	">
  </polyline>
  <path class="st0" d="M252.2,41.5c0.2-2-0.9-3.2-2.9-3.2c-2.3,0-4,1.9-4.7,5.6c-0.5,2.7-0.3,5.3,3,5.3c2.1,0,3.3-1.4,3.9-3.3h6.2
		c-1.5,5-5.7,8-10.9,8c-6.5,0-9.8-3.9-8.7-10.2c1.1-6.3,6.2-10.2,11.7-10.2c6,0,8.9,2.9,8.5,7.9">
  </path>
  <path class="st0" d="M140.4,67c-0.1,0.7-0.1,1.9,2.2,1.9c1.2,0,2.6-0.3,2.9-1.6c0.2-0.9-0.7-1.2-1.9-1.5l-1.3-0.3
		c-1.9-0.4-3.7-0.9-3.1-3.5c0.3-1.3,1.5-3.7,5.5-3.7c3.8,0,4.2,2.4,3.9,3.9h-2.5c0-0.5,0.1-1.8-2.1-1.8c-1,0-2.2,0.4-2.5,1.4
		c-0.2,0.9,0.5,1.1,1,1.2l2.8,0.7c1.6,0.4,3,1.1,2.5,3.2c-0.8,3.6-4.6,3.9-5.7,3.9c-4.5,0-4.7-2.5-4.4-4">
  </path>
  <polyline class="st0" points="160.3,60.9 153.8,60.9 153.3,63.4 159.3,63.4 158.8,65.5 152.8,65.5 152.1,68.6 159,68.6 158.5,70.7 
		149.2,70.7 151.8,58.7 160.8,58.7 	">
  </polyline>
  <path class="st0" d="M164.6,64l0.7-3.2h3.2c1.5,0,1.6,0.9,1.5,1.6c-0.3,1.2-1,1.6-2.3,1.6 M160.6,70.7h2.5l1-4.7h2.6
		c1.9,0,1.9,0.6,1.5,2.3c-0.3,1.2-0.3,1.8-0.2,2.4h2.8l0.1-0.3c-0.5-0.2-0.4-0.6,0-2.4c0.5-2.2,0-2.6-0.9-3c1.3-0.4,2.2-1.5,2.5-2.9
		c0.2-1,0.1-3.4-3.1-3.4h-6.2L160.6,70.7z">
  </path>
  <polyline class="st0" points="181.8,58.7 184.5,58.7 177.7,70.7 175.2,70.7 173.7,58.7 176.5,58.7 177.1,67.8 177.2,67.8 	">
  </polyline>
  <polyline class="st0" points="185.8,70.7 183.3,70.7 185.9,58.7 188.5,58.7 	">
  </polyline>
  <path class="st0" d="M197.8,62.7c-0.1-0.7-0.1-2.1-2.3-2.1c-1.2,0-3.2,0.8-4,4.2c-0.5,2.2,0,4.1,2.2,4.1c1.4,0,2.6-0.8,3.2-2.3h2.6
		c-1.1,2.6-3.2,4.4-6.3,4.4c-3.3,0-5.2-2.2-4.2-6.3c0.9-4.2,3.9-6.3,7-6.3c3.7,0,4.6,2.5,4.4,4.3">
  </path>
  <polyline class="st0" points="211.8,60.9 205.3,60.9 204.7,63.4 210.7,63.4 210.2,65.5 204.2,65.5 203.6,68.6 210.4,68.6 
		209.9,70.7 200.6,70.7 203.2,58.7 212.2,58.7 	">
  </polyline>
  <path class="st0" d="M214.6,67c-0.1,0.7-0.1,1.9,2.2,1.9c1.2,0,2.6-0.3,2.9-1.6c0.2-0.9-0.7-1.2-1.9-1.5l-1.3-0.3
		c-1.9-0.4-3.7-0.9-3.1-3.5c0.3-1.3,1.5-3.7,5.5-3.7c3.8,0,4.2,2.4,3.9,3.9h-2.5c0-0.5,0.1-1.8-2.1-1.8c-1,0-2.2,0.4-2.5,1.4
		c-0.2,0.9,0.5,1.1,1,1.2l2.8,0.7c1.6,0.4,3,1.1,2.5,3.2c-0.8,3.6-4.6,3.9-5.7,3.9c-4.5,0-4.7-2.5-4.4-4">
  </path>
 </g>
</svg>