<svg version="1.1" id="Layer_1" xmlns="http://www.w3.org/2000/svg" xmlns:xlink="http://www.w3.org/1999/xlink" x="0px" y="0px" viewBox="0 0 95.8 93.3" style="enable-background:new 0 0 95.8 93.3;" xml:space="preserve">
 <style type="text/css">
  .st0{fill:#FFFFFF;}
	.st1{fill:#D01847;}
 </style>
 <g>
  <g>
   <path class="st0" d="M93.8,30.8c-1.9-5.9-5.6-8.2-7.6-9c-1.7-0.7-3.6-0.8-5-0.8c-0.5,0-1.1,0-1.7,0c-0.3,0-0.7,0-0.9,0l-17.1-0.1
			c0.6-0.4,1-0.8,1.4-1.4c1.4-2.2,0.8-5.2,0.1-7.5c-0.6-2-2.3-6.7-4.3-8.7C55.6,0.2,51.2,0,45.2,0C39,0,35.7,2.8,34.3,4.4
			c-1.5,1.7-2.2,4.1-2.8,6.1c-0.1,0.3-0.2,0.6-0.3,0.9l-5.4,16.2c-0.2-0.6-0.5-1.3-0.9-1.8c-1.7-2.1-4.7-2.4-7.1-2.4l-0.4,0
			c-2.5,0-6.9,0.2-9.2,1.4c-3.9,2-5.5,6.1-7.3,11.8c-1.9,5.9-0.3,9.9,0.8,11.7c1.2,2,3.2,3.3,5,4.6c0.3,0.2,0.5,0.4,0.8,0.5
			l13.8,10.2c-0.1,0-0.2,0-0.3,0c-4,0-5.6,4.8-6.1,6.3c-0.7,2-2.1,6.8-1.7,9.6c0.7,4.3,4.1,7.1,9,10.6c2.8,2,5.9,3.1,8.8,3.1
			c0.9,0,1.8-0.1,2.6-0.3c2.2-0.5,4.2-2,5.9-3.3c0.3-0.2,0.5-0.4,0.7-0.6l13.9-10c-0.2,0.6-0.4,1.3-0.3,2c0.1,2.7,2.4,4.7,4.3,6.1
			c1.7,1.2,5.8,4.1,8.6,4.6c0.5,0.1,1,0.1,1.4,0.1c3.7,0,7.2-2.3,11.4-5.4c5-3.6,6-7.8,6.2-10c0.2-2.3-0.6-4.6-1.3-6.6
			c-0.1-0.3-0.2-0.6-0.3-0.9l-5.2-16.3c0.8,0.7,1.9,1.1,3.1,1.1c1.7,0,3.5-0.8,5.8-2.4c1.7-1.2,5.7-4.2,7-6.8
			C96.8,40.8,95.6,36.5,93.8,30.8">
   </path>
  </g>
  <path class="st1" d="M59.9,13c-0.6-1.9-2.1-6.1-3.5-7.4c-2.1-2.1-5.3-2.4-11.2-2.4c-4.2,0-7,1.6-8.5,3.3c-1.2,1.4-1.8,3.9-2.5,6
		l-7,21.1l10,0l4.6-13.9l4.6,14h10.1l-3.7-11c-0.2-0.6-0.7-2-1.2-2.9c-0.5-0.9-1.2-1-1.5-1.1c-0.1,0,2.2,0,4.3,0c1.9,0,3.9,0,4.3,0
		C60.3,18.4,61.3,17.2,59.9,13 M48.5,18.1c-2.3,0-6.1,0-6.1,0l4.5-13.5c0,0,2.9,8.6,3.4,10.2C50.9,16.6,50.5,18.1,48.5,18.1">
  </path>
  <path class="st1" d="M86,48.8c1.6-1.1,5.1-3.9,6-5.6c1.3-2.6,0.6-5.8-1.2-11.4c-1.3-4-3.6-6.2-5.8-7.1c-1.8-0.7-4.2-0.5-6.4-0.5
		l-22.2-0.2l3.1,9.6l14.7,0.1c0,0-11.9,8.7-11.9,8.7l3.1,9.6l9.4-6.9c0.5-0.3,1.7-1.3,2.4-2c0.7-0.7,0.6-1.5,0.6-1.7
		c0-0.1,0.7,2.1,1.3,4.1c0.6,1.9,1.2,3.7,1.3,4.1C81,50.9,82.4,51.4,86,48.8 M77.6,39.6c-0.7-2.2-1.9-5.8-1.9-5.8l14.2,0.1
		c0,0-7.3,5.4-8.6,6.4C79.8,41.4,78.2,41.5,77.6,39.6">
  </path>
  <path class="st1" d="M59.9,84.7c1.6,1.2,5.3,3.7,7.2,4c2.9,0.5,5.7-1.2,10.5-4.7c3.4-2.5,4.7-5.4,4.9-7.7c0.2-1.9-0.8-4.2-1.5-6.2
		l-6.7-21.2l-8.1,5.9l4.4,14l-12-8.6L50.5,66l9.4,6.8c0.5,0.3,1.7,1.3,2.6,1.7c0.9,0.4,1.6,0.1,1.8,0c0.1-0.1-1.8,1.3-3.5,2.5
		c-1.6,1.1-3.2,2.3-3.5,2.5C56.5,80.6,56.4,82,59.9,84.7 M66.2,73.9c1.8-1.4,4.9-3.6,4.9-3.6l4.3,13.5c0,0-7.4-5.3-8.8-6.2
		C65.1,76.5,64.6,75,66.2,73.9">
  </path>
  <path class="st1" d="M17.8,71c-0.6,1.9-1.9,6.1-1.6,8.1c0.5,2.9,2.9,5.1,7.7,8.5c3.4,2.5,6.6,2.8,8.8,2.3c1.8-0.4,3.7-2.1,5.5-3.4
		l18.1-12.9l-8.1-5.9l-11.9,8.6l4.5-14.1l-8.1-5.9l-3.5,11.1c-0.2,0.6-0.7,2-0.8,3c-0.1,1,0.3,1.5,0.5,1.7c0.1,0.1-1.8-1.3-3.5-2.5
		c-1.6-1.1-3.1-2.3-3.5-2.5C20.6,66.4,19.2,66.8,17.8,71 M30,73.6c1.9,1.3,4.9,3.6,4.9,3.6l-11.5,8.3c0,0,2.7-8.7,3.2-10.3
		C27.2,73.4,28.4,72.4,30,73.6">
  </path>
  <path class="st1" d="M17.8,26.7c-2,0-6.4,0.1-8.1,1C7,29,5.7,32,3.9,37.7c-1.3,4-0.7,7.1,0.5,9.1c1,1.6,3.1,2.9,4.9,4.2l17.9,13.2
		l3.1-9.5l-11.8-8.7c0,0,14.7-0.1,14.7-0.1l3.1-9.6l-11.6,0.1c-0.6,0-2.1,0-3.1,0.2c-1,0.2-1.4,0.8-1.5,1c-0.1,0.1,0.7-2.1,1.3-4.1
		c0.6-1.8,1.2-3.7,1.3-4.1C23,28,22.2,26.7,17.8,26.7 M19.1,39.1c-0.7,2.2-1.9,5.8-1.9,5.8L5.8,36.5c0,0,9.1-0.1,10.8-0.1
		C18.4,36.4,19.7,37.2,19.1,39.1">
  </path>
 </g>
</svg>